<svg width="24" height="24" viewBox="0 0 24 24" fill="none" xmlns="http://www.w3.org/2000/svg">
<rect x="0.5" y="0.5" width="16.4547" height="22.4663" rx="1.5" stroke="#55413E"/>
<path d="M18.5439 13.833C21.2909 13.833 23.4989 16.0073 23.499 18.666C23.499 21.3248 21.2909 23.5 18.5439 23.5C15.7972 23.4997 13.5898 21.3247 13.5898 18.666C13.59 16.0075 15.7973 13.8333 18.5439 13.833Z" fill="white" stroke="#55413E"/>
<path d="M1.91016 19.9995H9.00111" stroke="#55413E" stroke-linecap="round"/>
<path d="M10.0898 19.9995L12.8171 19.9995" stroke="#55413E" stroke-linecap="round"/>
<path d="M1.91016 17.8662H12.2739" stroke="#55413E" stroke-linecap="round"/>
<path d="M1.91016 15.7334H12.8193" stroke="#55413E" stroke-linecap="round"/>
<path d="M6.81641 2.40039H10.6346" stroke="#55413E" stroke-linecap="round"/>
<line x1="8.95508" y1="2.40039" x2="8.95508" y2="4.53369" stroke="#55413E"/>
<path d="M8.72754 4.5C11.9263 4.5 14.5007 7.0324 14.501 10.1328C14.501 10.9091 14.3236 11.3451 14.0918 11.6045C13.8584 11.8653 13.4972 12.0287 12.9541 12.1084C12.407 12.1886 11.7425 12.1745 10.9648 12.1348C10.2031 12.0959 9.3381 12.0332 8.45508 12.0332C7.57097 12.0332 6.73994 12.0968 6.02832 12.1357C5.29959 12.1756 4.70939 12.1885 4.2373 12.1104C3.77784 12.0343 3.49129 11.8813 3.30371 11.6348C3.10619 11.375 2.95508 10.9284 2.95508 10.1328C2.95532 7.0325 5.52896 4.50016 8.72754 4.5Z" stroke="#55413E"/>
<rect x="1.76523" y="11.8668" width="13.9274" height="1.3333" rx="0.666651" fill="white" stroke="#55413E" stroke-width="0.8"/>
<path d="M18.5469 16.5332V19.3355L20.5703 21.3141" stroke="#55413E" stroke-width="1.5" stroke-linecap="round" stroke-linejoin="round"/>
</svg>
