<svg width="24" height="24" viewBox="0 0 24 24" fill="none" xmlns="http://www.w3.org/2000/svg">
<rect x="0.5" y="0.5" width="16.4547" height="22.4663" rx="1.5" stroke="#55413E"/>
<path d="M18.5439 13.833C21.2909 13.833 23.4989 16.0073 23.499 18.666C23.499 21.3248 21.2909 23.5 18.5439 23.5C15.7972 23.4997 13.5898 21.3247 13.5898 18.666C13.59 16.0075 15.7973 13.8333 18.5439 13.833Z" fill="white" stroke="#55413E"/>
<path d="M1.91016 19.9995H9.00111" stroke="#55413E" stroke-linecap="round"/>
<path d="M10.0898 19.9995L12.8171 19.9995" stroke="#55413E" stroke-linecap="round"/>
<path d="M1.91016 17.8662H12.2739" stroke="#55413E" stroke-linecap="round"/>
<path d="M1.91016 15.7334H12.8193" stroke="#55413E" stroke-linecap="round"/>
<path d="M6.81641 2.40039H10.6346" stroke="#55413E" stroke-linecap="round"/>
<line x1="8.95508" y1="2.40039" x2="8.95508" y2="4.53369" stroke="#55413E"/>
<path d="M8.72754 4.5C11.9263 4.5 14.5007 7.0324 14.501 10.1328C14.501 10.9091 14.3236 11.3451 14.0918 11.6045C13.8584 11.8653 13.4972 12.0287 12.9541 12.1084C12.407 12.1886 11.7425 12.1745 10.9648 12.1348C10.2031 12.0959 9.3381 12.0332 8.45508 12.0332C7.57097 12.0332 6.73994 12.0968 6.02832 12.1357C5.29959 12.1756 4.70939 12.1885 4.2373 12.1104C3.77784 12.0343 3.49129 11.8813 3.30371 11.6348C3.10619 11.375 2.95508 10.9284 2.95508 10.1328C2.95532 7.0325 5.52896 4.50016 8.72754 4.5Z" stroke="#55413E"/>
<rect x="1.76523" y="11.8668" width="13.9274" height="1.3333" rx="0.666651" fill="white" stroke="#55413E" stroke-width="0.8"/>
<path d="M18.5391 15.6037C18.5508 15.5917 18.564 15.5813 18.5778 15.5719L18.6213 15.5477C18.6366 15.5413 18.6526 15.5365 18.6689 15.5332L18.7179 15.5284C18.7348 15.5284 18.7519 15.5299 18.7683 15.5332L18.8153 15.5484C18.8307 15.5549 18.8457 15.5625 18.8595 15.5719L18.8975 15.6043C18.9207 15.6282 18.9392 15.6562 18.9513 15.6872C18.9574 15.7028 18.9623 15.7192 18.9651 15.7355L18.9679 15.7853V18.0723C18.9679 18.0936 18.9707 18.115 18.9748 18.1358L18.9928 18.1966C19.0009 18.2162 19.0107 18.235 19.0225 18.2525L19.0632 18.3016L19.1115 18.3416L19.1675 18.3713C19.2067 18.3876 19.2493 18.3962 19.2918 18.3962L19.2911 18.3955L21.5705 18.3962H21.5733C21.5895 18.3961 21.6057 18.3973 21.6216 18.4003L21.6693 18.4148C21.6998 18.4273 21.7274 18.4455 21.7508 18.4687C21.7624 18.4802 21.7734 18.4924 21.7825 18.506L21.806 18.5502C21.8123 18.5653 21.8166 18.5811 21.8198 18.5971L21.8246 18.6461C21.8246 18.6627 21.823 18.6791 21.8198 18.6952L21.806 18.7421C21.7933 18.7726 21.7742 18.8004 21.7508 18.8236L21.7128 18.8547L21.6693 18.8775C21.6541 18.8837 21.6383 18.8882 21.6223 18.8913L21.5733 18.8961H19.2918L19.2289 18.9023L19.1682 18.9203L19.1115 18.9507L19.0632 18.9907C19.0481 19.0058 19.0342 19.0221 19.0225 19.0398L18.9928 19.0957C18.9847 19.1153 18.9789 19.1357 18.9748 19.1565L18.9686 19.2193V21.5008C18.9687 21.5173 18.9668 21.5337 18.9638 21.5498L18.9499 21.5968C18.9375 21.6274 18.9186 21.6555 18.8954 21.679L18.8581 21.7107C18.8445 21.7199 18.8298 21.7272 18.8146 21.7335C18.7993 21.7399 18.7832 21.7448 18.767 21.748L18.7179 21.7529C18.7014 21.7528 18.685 21.7513 18.6689 21.748L18.6226 21.7335C18.6073 21.7271 18.5922 21.7193 18.5784 21.71L18.5405 21.679C18.5289 21.6673 18.5184 21.6546 18.5094 21.641L18.4866 21.5975C18.4804 21.5822 18.4752 21.566 18.4721 21.5498L18.4686 21.5008L18.468 21.4987L18.4686 19.2193C18.4687 19.1769 18.4593 19.1349 18.4431 19.0957C18.4269 19.0566 18.4039 19.0207 18.374 18.9907C18.359 18.9757 18.3419 18.9624 18.3243 18.9507L18.2684 18.921L18.2083 18.9023L18.1455 18.8961H15.8653C15.8171 18.8952 15.7702 18.8806 15.7307 18.854L15.6934 18.8222C15.6584 18.787 15.6345 18.7425 15.625 18.6945L15.6209 18.6461C15.6209 18.5966 15.6353 18.5487 15.6623 18.508L15.6934 18.4701C15.7282 18.4351 15.7721 18.4116 15.8198 18.4017L15.8681 18.3962H18.1455L18.1448 18.3955C18.1872 18.3955 18.2292 18.3875 18.2684 18.3713C18.3077 18.3551 18.344 18.3316 18.374 18.3016C18.4039 18.2717 18.4269 18.2357 18.4431 18.1966C18.4592 18.1577 18.4679 18.1159 18.468 18.0737L18.4673 15.7942H18.4686L18.468 15.7853C18.4675 15.7686 18.4692 15.7519 18.4721 15.7355L18.4852 15.6879C18.4913 15.6723 18.499 15.657 18.508 15.643L18.5391 15.6037Z" fill="#55413E" stroke="#55413E" stroke-width="0.6"/>
</svg>
